<svg xmlns="http://www.w3.org/2000/svg" xmlns:xlink="http://www.w3.org/1999/xlink" id="Layer_1" width="552" height="145" x="0" y="0" enable-background="new 0 0 552 145" version="1.0" viewBox="0 0 552 145" xml:space="preserve"><metadata><?xpacket begin="﻿" id="W5M0MpCehiHzreSzNTczkc9d"?><?xpacket end="w"?></metadata><switch><g><rect width="552" height="145" y="1" fill="#FFF"/><g><circle cx="374.341" cy="74" r="4.347" fill="#3F51B5"/><circle cx="385.934" cy="74" r="2.319" fill="#3F51B5"/><circle cx="394.629" cy="74" r="2.029" fill="#3F51B5"/><circle cx="400.426" cy="74" r="1.268" fill="#3F51B5"/><circle cx="405.644" cy="74" r=".634" fill="#3F51B5"/><circle cx="345.356" cy="74" r=".634" fill="#3F51B5"/><circle cx="349.415" cy="74" r="1.268" fill="#3F51B5"/><circle cx="354.632" cy="74" r="2.028" fill="#3F51B5"/><circle cx="362.747" cy="74" r="2.608" fill="#3F51B5"/></g><g><ellipse cx="161.251" cy="75" fill="#3F51B5" rx="2.415" ry="3.348"/><ellipse cx="167.69" cy="75" fill="#3F51B5" rx="1.288" ry="1.785"/><ellipse cx="172.519" cy="75" fill="#3F51B5" rx="1.127" ry="1.563"/><ellipse cx="175.738" cy="75" fill="#3F51B5" rx=".704" ry=".977"/><ellipse cx="178.635" cy="75" fill="#3F51B5" rx=".352" ry=".488"/><ellipse cx="145.154" cy="75" fill="#3F51B5" rx=".352" ry=".488"/><ellipse cx="147.407" cy="75" fill="#3F51B5" rx=".704" ry=".977"/><ellipse cx="150.305" cy="75" fill="#3F51B5" rx="1.127" ry="1.563"/><ellipse cx="154.812" cy="75" fill="#3F51B5" rx="1.449" ry="2.009"/></g><g><g><g><g><path fill="#303E91" d="M492.557,120.195c0-3.362-2.248-6.088-5.019-6.088h-23.444c-2.771,0-5.018,2.726-5.018,6.088v1.845 h33.48V120.195z"/><path fill="#3949AB" d="M459.076,122.04v7.492c0,3.362,2.246,6.087,5.018,6.087h23.444c2.771,0,5.019-2.725,5.019-6.087 v-7.492H459.076z"/></g><g><path fill="#3949AB" d="M536.029,113.047c0,3.361-2.724,6.087-6.087,6.087H421.69c-3.363,0-6.087-2.726-6.087-6.087V40.178 c0-3.362,2.724-6.087,6.087-6.087h108.252c3.363,0,6.087,2.725,6.087,6.087V113.047z"/><polygon fill="#4D5AAB" points="492.52 130.241 459.113 130.241 443.189 140.997 508.441 140.997"/></g></g><g><path fill="#E89C0B" d="M420.75,39c-0.253,0-0.457,0.205-0.457,0.457v71.42c0,0.252,0.204,0.457,0.457,0.457L531.942,39H420.75 z"/><path fill="#E8810B" d="M532.355,39h-0.413L420.75,111.334h111.605c0.251,0,0.457-0.205,0.457-0.457v-71.42 C532.813,39.204,532.606,39,532.355,39z"/></g></g><g><g><g><path fill="#3949AB" d="M440.343,13.101c-0.771-5.392-4.386-6.621-4.386-6.621l-0.02-0.024c-1.27,0-2.193,0-2.696,0 c-6.108,0-7.33,8.755-7.33,8.755h0.011l-0.003,0v47.046h32.616l0.72-51.925L440.343,13.101z"/><g><g><path fill="#547DBE" d="M457.703,92.691h57.908V13.659c-0.09-0.64-1.087-6.586-7.277-7.205H506.1h-65.528v0.002 c-1.827,0-3.396,0-4.634,0l0.02,0.024c0,0,4.528,1.54,4.528,8.731h0.111l0.006,1.742v77.164c0,0,0.004,0.022,0.008,0.06 c0.089,0.641,1.085,6.587,7.277,7.205h2.233C458.128,100.669,457.703,92.691,457.703,92.691z"/></g></g></g><path fill="#3949AB" d="M457.662,92.691h72.523c0,0-1.223,8.755-7.329,8.755c-6.108,0-74.375,0-74.375,0 S457.699,101.841,457.662,92.691z"/></g><rect width="36.52" height="2.029" x="447.068" y="15.828" fill="#F1F9FC"/><g><rect width="36.52" height="2.03" x="453.592" y="21.809" fill="#F1F9FC"/><rect width="8.116" height="2.03" x="494.493" y="21.809" fill="#F1F9FC"/></g><rect width="36.521" height="2.028" x="459.339" y="27.791" fill="#F1F9FC"/><g><rect width="36.52" height="2.029" x="447.068" y="33.771" fill="#F1F9FC"/><rect width="12.343" height="2.029" x="486.494" y="33.771" fill="#F1F9FC"/></g><rect width="36.521" height="2.029" x="455.619" y="39.751" fill="#F1F9FC"/><rect width="18.769" height="2.029" x="462.763" y="45.732" fill="#F1F9FC"/><rect width="36.521" height="2.029" x="455.492" y="51.714" fill="#F1F9FC"/><rect width="36.52" height="2.029" x="447.068" y="57.694" fill="#F1F9FC"/><g><rect width="36.521" height="2.029" x="451.633" y="63.675" fill="#F1F9FC"/><rect width="12.342" height="2.029" x="491.06" y="63.675" fill="#F1F9FC"/></g><rect width="18.768" height="2.03" x="463.871" y="69.656" fill="#F1F9FC"/><rect width="36.52" height="2.029" x="456.601" y="75.637" fill="#F1F9FC"/><g><rect width="36.52" height="2.028" x="471.642" y="81.618" fill="#F1F9FC"/><rect width="12.342" height="2.028" x="456.394" y="81.618" fill="#F1F9FC"/></g><rect width="36.52" height="2.028" x="447.068" y="87.599" fill="#F1F9FC"/></g><g><circle cx="518.912" cy="51.245" r="19.94" fill="#3949AB"/><g><circle cx="520.976" cy="50.093" r="19.94" fill="#F1F8F8"/></g></g><circle cx="476.268" cy="115.666" r="2.225" fill="#FFF"/></g><g><path fill="#E89C0B" d="M119.74,81.193h2.985v-8.589c0-0.333,0.01-0.683,0.031-1.049l-2.12,1.773 c-0.088,0.074-0.178,0.125-0.27,0.152s-0.182,0.041-0.27,0.041c-0.136,0-0.26-0.029-0.372-0.087 c-0.112-0.058-0.195-0.124-0.25-0.198l-0.795-1.091l4.494-3.821h2.069v12.869h2.649v1.886h-8.151V81.193z"/><path fill="#E89C0B" d="M131.56,81.193h2.985v-8.589c0-0.333,0.01-0.683,0.031-1.049l-2.12,1.773 c-0.088,0.074-0.178,0.125-0.27,0.152s-0.182,0.041-0.27,0.041c-0.136,0-0.26-0.029-0.372-0.087 c-0.112-0.058-0.195-0.124-0.25-0.198l-0.795-1.091l4.494-3.821h2.069v12.869h2.649v1.886h-8.151V81.193z"/></g><g><ellipse cx="227.251" cy="75" fill="#3F51B5" rx="2.415" ry="3.348"/><ellipse cx="233.69" cy="75" fill="#3F51B5" rx="1.288" ry="1.785"/><ellipse cx="238.519" cy="75" fill="#3F51B5" rx="1.127" ry="1.563"/><ellipse cx="241.738" cy="75" fill="#3F51B5" rx=".704" ry=".977"/><ellipse cx="244.635" cy="75" fill="#3F51B5" rx=".352" ry=".488"/><ellipse cx="211.154" cy="75" fill="#3F51B5" rx=".352" ry=".488"/><ellipse cx="213.407" cy="75" fill="#3F51B5" rx=".704" ry=".977"/><ellipse cx="216.305" cy="75" fill="#3F51B5" rx="1.127" ry="1.563"/><ellipse cx="220.812" cy="75" fill="#3F51B5" rx="1.449" ry="2.009"/></g><g><path fill="#E89C0B" d="M183.278,81.824h3.572V71.548c0-0.398,0.012-0.816,0.037-1.255l-2.536,2.121 c-0.105,0.089-0.213,0.15-0.323,0.183c-0.11,0.033-0.218,0.049-0.323,0.049c-0.163,0-0.311-0.034-0.445-0.104 c-0.134-0.069-0.234-0.148-0.299-0.238L182.01,71l5.375-4.571h2.475v15.396h3.169v2.255h-9.752V81.824z"/><path fill="#E89C0B" d="M205.622,77.436h2.218v1.743c0,0.163-0.053,0.303-0.158,0.421c-0.106,0.117-0.26,0.177-0.463,0.177 h-1.597v4.303h-2.633v-4.303h-7.436c-0.203,0-0.382-0.063-0.537-0.188c-0.154-0.127-0.252-0.283-0.292-0.471l-0.305-1.523 l8.35-11.153h2.853V77.436z M202.988,71.67c0-0.26,0.008-0.54,0.024-0.841s0.044-0.614,0.085-0.939l-5.473,7.545h5.363V71.67z"/></g><g><ellipse cx="288.251" cy="75" fill="#3F51B5" rx="2.415" ry="3.348"/><ellipse cx="294.69" cy="75" fill="#3F51B5" rx="1.288" ry="1.785"/><ellipse cx="299.519" cy="75" fill="#3F51B5" rx="1.126" ry="1.563"/><ellipse cx="302.738" cy="75" fill="#3F51B5" rx=".704" ry=".977"/><ellipse cx="305.636" cy="75" fill="#3F51B5" rx=".353" ry=".488"/><ellipse cx="272.154" cy="75" fill="#3F51B5" rx=".352" ry=".488"/><ellipse cx="274.407" cy="75" fill="#3F51B5" rx=".704" ry=".977"/><ellipse cx="277.305" cy="75" fill="#3F51B5" rx="1.127" ry="1.563"/><ellipse cx="281.812" cy="75" fill="#3F51B5" rx="1.449" ry="2.009"/></g><g><path fill="#E89C0B" d="M245.547,81.639h3.865V70.52c0-0.431,0.013-0.884,0.04-1.358l-2.744,2.295 c-0.114,0.097-0.23,0.163-0.349,0.198s-0.235,0.053-0.35,0.053c-0.176,0-0.336-0.037-0.481-0.112s-0.253-0.161-0.323-0.257 l-1.029-1.411l5.817-4.946h2.677v16.658h3.429v2.44h-10.552V81.639z"/><path fill="#E89C0B" d="M271.755,65.007v1.411c0,0.422-0.046,0.763-0.139,1.022s-0.183,0.477-0.271,0.653l-7.215,14.877 c-0.149,0.309-0.36,0.57-0.633,0.785c-0.273,0.216-0.642,0.323-1.108,0.323h-2.361l7.386-14.575 c0.308-0.598,0.65-1.112,1.029-1.543h-9.127c-0.203,0-0.378-0.075-0.528-0.224s-0.224-0.326-0.224-0.528v-2.203H271.755z"/></g><g><path fill="#E89C0B" d="M312.143,61.872c1.014,0,1.939,0.15,2.78,0.448c0.841,0.299,1.56,0.722,2.157,1.269 s1.063,1.205,1.397,1.975c0.334,0.77,0.501,1.625,0.501,2.567c0,0.811-0.119,1.56-0.357,2.248 c-0.237,0.689-0.557,1.347-0.957,1.975c-0.399,0.628-0.867,1.235-1.404,1.823c-0.537,0.587-1.1,1.185-1.686,1.792l-4.953,5.058 c0.486-0.141,0.963-0.25,1.429-0.326s0.911-0.113,1.337-0.113h5.635c0.405,0,0.727,0.113,0.965,0.342 c0.238,0.228,0.357,0.529,0.357,0.903v2.248h-15.068v-1.245c0-0.254,0.053-0.518,0.159-0.791 c0.106-0.272,0.276-0.525,0.509-0.759l6.668-6.684c0.557-0.567,1.057-1.108,1.496-1.625c0.441-0.517,0.811-1.028,1.109-1.534 s0.526-1.02,0.684-1.542c0.156-0.521,0.235-1.071,0.235-1.648c0-0.526-0.076-0.99-0.228-1.39c-0.152-0.4-0.37-0.737-0.654-1.01 c-0.283-0.273-0.619-0.479-1.01-0.615c-0.39-0.137-0.828-0.205-1.313-0.205c-0.901,0-1.644,0.228-2.226,0.684 s-0.99,1.068-1.223,1.838c-0.111,0.385-0.278,0.661-0.501,0.828c-0.224,0.167-0.507,0.251-0.851,0.251 c-0.152,0-0.319-0.015-0.502-0.046l-1.975-0.349c0.152-1.053,0.445-1.977,0.881-2.772s0.98-1.458,1.633-1.99 c0.654-0.531,1.402-0.932,2.248-1.2C310.262,62.006,311.171,61.872,312.143,61.872z"/><path fill="#E89C0B" d="M337.479,73.098c0,1.913-0.205,3.576-0.614,4.989c-0.41,1.413-0.978,2.579-1.702,3.501 c-0.724,0.922-1.579,1.607-2.566,2.059c-0.987,0.45-2.053,0.676-3.197,0.676s-2.205-0.226-3.183-0.676 c-0.978-0.451-1.825-1.137-2.544-2.059s-1.281-2.088-1.686-3.501c-0.406-1.413-0.608-3.076-0.608-4.989 c0-1.925,0.202-3.59,0.608-4.998c0.404-1.408,0.967-2.572,1.686-3.494s1.566-1.607,2.544-2.058s2.038-0.676,3.183-0.676 s2.21,0.226,3.197,0.676s1.843,1.137,2.566,2.058c0.725,0.921,1.292,2.086,1.702,3.494 C337.273,69.507,337.479,71.173,337.479,73.098z M333.605,73.098c0-1.59-0.116-2.907-0.35-3.95 c-0.232-1.042-0.544-1.873-0.934-2.491c-0.391-0.618-0.838-1.051-1.344-1.299c-0.507-0.248-1.033-0.372-1.58-0.372 c-0.537,0-1.056,0.124-1.557,0.372c-0.502,0.248-0.945,0.681-1.33,1.299s-0.69,1.448-0.918,2.491 c-0.229,1.043-0.342,2.36-0.342,3.95c0,1.59,0.113,2.906,0.342,3.949c0.228,1.043,0.533,1.873,0.918,2.49 c0.385,0.618,0.828,1.051,1.33,1.299c0.501,0.248,1.02,0.372,1.557,0.372c0.547,0,1.073-0.124,1.58-0.372 c0.506-0.248,0.953-0.681,1.344-1.299c0.39-0.617,0.701-1.447,0.934-2.49C333.489,76.004,333.605,74.688,333.605,73.098z"/></g><g><g><path fill="#3949AB" d="M526.553,52.223c-0.495,0.013-0.899,0.149-1.212,0.409s-0.521,0.615-0.623,1.068 c-0.104,0.453-0.158,1.228-0.165,2.324c-0.006,1.096-0.025,1.818-0.058,2.166c-0.058,0.552-0.166,0.995-0.323,1.33 c-0.158,0.335-0.354,0.602-0.585,0.803c-0.231,0.2-0.528,0.353-0.889,0.458c-0.245,0.066-0.644,0.099-1.198,0.099h-0.541v-1.546 h0.299c0.671,0,1.115-0.123,1.334-0.37c0.219-0.246,0.329-0.796,0.329-1.649c0-1.72,0.035-2.807,0.106-3.259 c0.115-0.703,0.313-1.244,0.594-1.625c0.279-0.38,0.72-0.719,1.318-1.014c-0.708-0.302-1.222-0.763-1.541-1.384 c-0.318-0.62-0.478-1.636-0.478-3.047c0-1.28-0.013-2.042-0.039-2.285c-0.052-0.446-0.183-0.758-0.392-0.935 c-0.209-0.178-0.619-0.266-1.232-0.266h-0.299v-1.546h0.541c0.632,0,1.089,0.053,1.372,0.158 c0.413,0.151,0.753,0.396,1.024,0.733c0.271,0.338,0.446,0.767,0.526,1.285c0.081,0.519,0.124,1.369,0.13,2.55 c0.007,1.182,0.062,1.999,0.165,2.452c0.103,0.453,0.311,0.811,0.623,1.073s0.717,0.4,1.212,0.414V52.223z"/></g><g><path fill="#3949AB" d="M504.23,50.608c0.496-0.013,0.899-0.149,1.212-0.409s0.521-0.615,0.623-1.068 c0.104-0.453,0.158-1.228,0.165-2.324c0.006-1.096,0.025-1.818,0.058-2.166c0.058-0.552,0.166-0.995,0.323-1.33 c0.158-0.334,0.354-0.602,0.585-0.802c0.231-0.201,0.528-0.353,0.89-0.458c0.244-0.065,0.643-0.098,1.197-0.098h0.541v1.546 h-0.3c-0.67,0-1.114,0.123-1.333,0.369s-0.329,0.796-0.329,1.649c0,1.72-0.035,2.806-0.106,3.259 c-0.115,0.703-0.313,1.244-0.594,1.625c-0.28,0.381-0.72,0.719-1.318,1.015c0.708,0.302,1.222,0.763,1.541,1.383 c0.318,0.621,0.478,1.637,0.478,3.048c0,1.28,0.013,2.042,0.039,2.284c0.052,0.446,0.183,0.759,0.392,0.936 c0.209,0.177,0.619,0.266,1.231,0.266h0.3v1.546h-0.541c-0.632,0-1.089-0.053-1.372-0.158c-0.412-0.151-0.753-0.396-1.024-0.733 c-0.271-0.338-0.446-0.767-0.526-1.285c-0.081-0.519-0.124-1.368-0.13-2.55c-0.007-1.182-0.062-1.999-0.165-2.452 c-0.103-0.453-0.311-0.811-0.623-1.073s-0.716-0.4-1.212-0.414V50.608z"/></g><g><path fill="#3949AB" d="M509.338,55.869c0-0.121,0.022-0.236,0.067-0.346s0.107-0.204,0.188-0.282 c0.08-0.078,0.174-0.141,0.284-0.188s0.228-0.07,0.354-0.07c0.12,0,0.236,0.023,0.346,0.07c0.11,0.047,0.204,0.11,0.282,0.188 c0.078,0.079,0.141,0.172,0.188,0.282c0.046,0.11,0.07,0.225,0.07,0.346c0,0.126-0.024,0.242-0.07,0.35 c-0.048,0.108-0.11,0.201-0.188,0.279c-0.078,0.079-0.172,0.14-0.282,0.185c-0.109,0.045-0.226,0.068-0.346,0.068 c-0.126,0-0.243-0.023-0.354-0.068s-0.204-0.106-0.284-0.185c-0.081-0.078-0.144-0.171-0.188-0.279 S509.338,55.995,509.338,55.869z"/><path fill="#3949AB" d="M511.981,55.869c0-0.121,0.022-0.236,0.067-0.346s0.107-0.204,0.188-0.282 c0.079-0.078,0.175-0.141,0.284-0.188c0.11-0.047,0.228-0.07,0.354-0.07c0.121,0,0.236,0.023,0.346,0.07 c0.11,0.047,0.204,0.11,0.282,0.188c0.078,0.079,0.142,0.172,0.188,0.282s0.07,0.225,0.07,0.346c0,0.126-0.023,0.242-0.07,0.35 s-0.11,0.201-0.188,0.279c-0.078,0.079-0.172,0.14-0.282,0.185c-0.109,0.045-0.225,0.068-0.346,0.068 c-0.126,0-0.243-0.023-0.354-0.068c-0.109-0.045-0.205-0.106-0.284-0.185c-0.081-0.078-0.144-0.171-0.188-0.279 S511.981,55.995,511.981,55.869z"/><path fill="#3949AB" d="M514.625,55.869c0-0.121,0.022-0.236,0.068-0.346c0.044-0.11,0.107-0.204,0.188-0.282 c0.08-0.078,0.176-0.141,0.285-0.188s0.228-0.07,0.353-0.07c0.121,0,0.237,0.023,0.347,0.07s0.203,0.11,0.282,0.188 c0.078,0.079,0.141,0.172,0.188,0.282c0.048,0.11,0.07,0.225,0.07,0.346c0,0.126-0.022,0.242-0.07,0.35 c-0.047,0.108-0.109,0.201-0.188,0.279c-0.079,0.079-0.173,0.14-0.282,0.185s-0.226,0.068-0.347,0.068 c-0.125,0-0.243-0.023-0.353-0.068s-0.205-0.106-0.285-0.185c-0.08-0.078-0.144-0.171-0.188-0.279 C514.647,56.111,514.625,55.995,514.625,55.869z"/><path fill="#3949AB" d="M517.27,55.869c0-0.121,0.022-0.236,0.067-0.346s0.107-0.204,0.188-0.282 c0.08-0.078,0.174-0.141,0.284-0.188s0.228-0.07,0.354-0.07c0.12,0,0.236,0.023,0.346,0.07s0.204,0.11,0.282,0.188 c0.078,0.079,0.141,0.172,0.188,0.282c0.046,0.11,0.07,0.225,0.07,0.346c0,0.126-0.024,0.242-0.07,0.35 c-0.048,0.108-0.11,0.201-0.188,0.279c-0.078,0.079-0.173,0.14-0.282,0.185s-0.226,0.068-0.346,0.068 c-0.126,0-0.243-0.023-0.354-0.068s-0.204-0.106-0.284-0.185c-0.081-0.078-0.144-0.171-0.188-0.279S517.27,55.995,517.27,55.869 z"/><path fill="#3949AB" d="M519.913,55.869c0-0.121,0.022-0.236,0.067-0.346s0.108-0.204,0.188-0.282 c0.08-0.078,0.176-0.141,0.285-0.188s0.228-0.07,0.353-0.07c0.121,0,0.236,0.023,0.347,0.07c0.109,0.047,0.203,0.11,0.282,0.188 c0.078,0.079,0.141,0.172,0.188,0.282s0.07,0.225,0.07,0.346c0,0.126-0.023,0.242-0.07,0.35s-0.109,0.201-0.188,0.279 c-0.079,0.079-0.173,0.14-0.282,0.185c-0.11,0.045-0.226,0.068-0.347,0.068c-0.125,0-0.243-0.023-0.353-0.068 s-0.205-0.106-0.285-0.185c-0.08-0.078-0.144-0.171-0.188-0.279S519.913,55.995,519.913,55.869z"/></g></g><g><g><polygon fill="#3F51B5" points="49.205 93.361 41.295 69.168 62 54.047 82.704 69.168 74.794 93.361"/><polygon fill="#3F51B5" points="62 19.851 62 54.047 41.295 69.168 7.797 59.398"/><polygon fill="#3949AB" points="7.797 59.398 41.295 69.168 49.205 93.361 28.501 123.139"/><polygon fill="#3949AB" points="61.926 54.047 61.926 19.851 116.203 59.398 82.704 69.168"/><polygon fill="#283593" points="49.205 93.361 28.501 123.139 95.498 123.139 74.794 93.361"/><polygon fill="#303F9F" points="82.704 69.168 116.203 59.398 95.498 123.139 74.794 93.361"/></g><g><g><path fill="#FFF" d="M79.374,73.483h4.241V69.22h3.577v4.264h4.264v3.577h-4.264v4.24h-3.577v-4.24h-4.241V73.483z"/></g><g><path fill="#FFF" d="M92.779,73.483h4.242V69.22h3.576v4.264h4.264v3.577h-4.264v4.24h-3.576v-4.24h-4.242V73.483z"/></g></g><g><polygon fill="#3949AB" points="77.105 65.094 82.704 69.168 77.117 65.088"/><polygon fill="#3949AB" points="62 19.851 61.963 19.877 62 19.904"/><polygon fill="#3949AB" points="61.926 19.851 61.926 19.904 61.963 19.877"/><polygon fill="#3949AB" points="77.105 65.094 77.117 65.088 62 54.047 61.963 54.074"/><polygon fill="#3949AB" points="62 54.074 62 54.047 62 19.904 62 19.877 62 19.904 62 54.047"/><g opacity=".25"><polyline fill="#3949AB" points="77.117 65.088 103.153 50.191 103.203 49.925 62 19.904 62 19.904 7.833 59.398 41.301 69.165 41.295 69.168 7.797 59.398 20.219 97.641 45.816 82.996 77.105 65.094 61.986 54.091 62.009 54.074"/><polyline fill="#231F20" points="77.117 65.088 103.153 50.191 103.203 49.925 62 19.904 62 19.904 7.833 59.398 41.301 69.165 41.295 69.168 7.797 59.398 20.219 97.641 45.816 82.996 77.105 65.094 61.986 54.091 62.009 54.074"/><polyline fill="#A5D8FF" points="77.117 65.088 103.153 50.191 103.203 49.925 62 19.904 62 19.904 7.833 59.398 41.301 69.165 41.295 69.168 7.797 59.398 20.219 97.641 45.816 82.996 77.105 65.094 61.986 54.091 62.009 54.074"/></g></g><g><path fill="#FFF" d="M58.05,108.285c-17.675,0-32.056-14.592-32.056-32.529c0-17.936,14.381-32.528,32.056-32.528 c11.522,0,22.212,6.323,27.9,16.501l-13.971,7.807c-2.862-5.121-8.2-8.303-13.929-8.303c-8.851,0-16.052,7.413-16.052,16.523 c0,9.111,7.202,16.524,16.052,16.524c5.856,0,11.251-3.286,14.079-8.577l14.115,7.545 C80.628,101.757,69.824,108.285,58.05,108.285z"/></g></g></g></switch></svg>