<svg xmlns="http://www.w3.org/2000/svg" xmlns:xlink="http://www.w3.org/1999/xlink" id="Layer_1" width="552" height="174" x="0" y="0" enable-background="new 0 0 552 174" version="1.0" viewBox="0 0 552 174" xml:space="preserve"><metadata><?xpacket begin="﻿" id="W5M0MpCehiHzreSzNTczkc9d"?><?xpacket end="w"?></metadata><switch><g><g><rect width="552" height="174" fill="#FFF"/><g><circle cx="339.49" cy="88.252" r="9.621" fill="#3F51B5"/><circle cx="365.147" cy="88.252" r="5.132" fill="#3F51B5"/><circle cx="384.39" cy="88.252" r="4.49" fill="#3F51B5"/><circle cx="397.218" cy="88.252" r="2.806" fill="#3F51B5"/><circle cx="408.764" cy="88.252" r="1.403" fill="#3F51B5"/><circle cx="275.348" cy="88.252" r="1.403" fill="#3F51B5"/><circle cx="284.329" cy="88.252" r="2.806" fill="#3F51B5"/><circle cx="295.874" cy="88.252" r="4.49" fill="#3F51B5"/><circle cx="313.833" cy="88.252" r="5.772" fill="#3F51B5"/></g><g><g><polygon fill="#E8A20B" points="172.713 167.092 63.05 167.092 63.05 4.186 138.63 4.197 150.463 30.622 172.713 40.737"/><path fill="#3F51B5" d="M173.234,167.636H62.529V3.64l76.432,0.008l11.89,26.557l22.383,10.176V167.636z M63.573,166.543 h108.619V41.099l-22.118-10.058l-11.777-26.3L63.573,4.734V166.543z"/></g><path fill="#3F51B5" d="M138.63,6.118l1.768,34.443c0,0-0.579,4.628,4.069,4.924 c4.647,0.29,28.247-4.739,28.247-4.739L138.63,6.118z" opacity=".36"/><path fill="#3F51B5" d="M138.63,4.197l0.018,31.741c0,0-0.579,4.632,4.07,4.921c4.645,0.295,29.996-0.113,29.996-0.113 L138.63,4.197z"/></g><g><rect width="10.058" height="2.163" x="179.657" y="79.97" fill="#E8A20B" transform="matrix(-7.281740e-004 -1 1 -7.281740e-004 103.7695 265.7965)"/><polygon fill="#3F51B5" points="151.693 81.444 173.414 70.276 179.026 75.566 183.658 76.499 183.658 81.029"/><polygon fill="#5773FF" points="151.707 81.458 173.603 92.104 179.104 86.7 183.64 85.674 183.658 81.029"/><g><line x1="171.317" x2="154.165" y1="81.182" y2="81.456" fill="#22272B"/><polygon fill="#F9F9F9" points="171.324 81.681 152.771 81.975 151.693 81.444 152.596 80.984 171.307 80.684"/></g><path fill="#F9F9F9" d="M171.813,79.479c0.921,0.958,0.899,2.489-0.048,3.421c-0.95,0.931-2.465,0.909-3.388-0.048 c-0.92-0.96-0.898-2.491,0.047-3.425C169.373,78.497,170.889,78.521,171.813,79.479z"/><g><path fill="#3F51B5" d="M147.831,81.748c0-14.458,11.599-26.182,25.907-26.182c14.309,0,25.907,11.724,25.907,26.182 c0,14.459-11.598,26.18-25.907,26.18C159.43,107.928,147.831,96.207,147.831,81.748 M147.208,81.748 c0,1.816,0.181,3.637,0.538,5.402c0.348,1.723,0.87,3.416,1.546,5.035c0.666,1.589,1.49,3.122,2.447,4.553 c0.949,1.42,2.038,2.753,3.239,3.964c1.201,1.215,2.522,2.317,3.926,3.274c1.419,0.97,2.937,1.799,4.505,2.472 c1.603,0.687,3.278,1.211,4.982,1.564c1.751,0.358,3.548,0.541,5.348,0.541c1.8,0,3.599-0.183,5.346-0.541 c1.703-0.354,3.379-0.878,4.979-1.564c1.574-0.673,3.09-1.502,4.508-2.472c1.405-0.957,2.728-2.06,3.925-3.274 c1.205-1.211,2.292-2.544,3.242-3.964c0.958-1.431,1.78-2.964,2.446-4.553c0.676-1.619,1.198-3.313,1.546-5.035 c0.358-1.766,0.539-3.586,0.539-5.402c0-1.818-0.18-3.633-0.539-5.399c-0.348-1.723-0.871-3.416-1.546-5.034 c-0.666-1.591-1.488-3.122-2.446-4.555c-0.95-1.42-2.037-2.755-3.242-3.967c-1.197-1.211-2.52-2.313-3.925-3.273 c-1.417-0.967-2.934-1.799-4.508-2.474c-1.601-0.682-3.276-1.206-4.979-1.562c-1.747-0.357-3.545-0.542-5.346-0.542 c-1.8,0-3.597,0.185-5.348,0.542c-1.704,0.355-3.379,0.88-4.982,1.562c-1.569,0.675-3.086,1.507-4.505,2.474 c-1.403,0.96-2.725,2.063-3.926,3.273c-1.201,1.212-2.291,2.547-3.239,3.967c-0.957,1.433-1.781,2.964-2.447,4.555 c-0.676,1.618-1.198,3.312-1.546,5.034C147.389,78.115,147.208,79.93,147.208,81.748L147.208,81.748z"/></g><rect width=".85" height="47.389" x="146.358" y="57.873" fill="#3F51B5"/><g><rect width="4.261" height="4.075" x="144.774" y="79.374" fill="#F7F8F9"/><path fill="#3F51B5" d="M149.422,83.839h-5.035l0.001-4.855l5.034,0.002V83.839z M145.158,83.055l3.488,0.004l0.001-3.293 h-3.484L145.158,83.055z"/></g><g><polygon fill="#F7F8F9" points="162.367 103.714 159.353 106.757 156.503 103.875 159.516 100.831"/><path fill="#3F51B5" d="M162.912,103.714l-3.56,3.595l-3.397-3.434l3.56-3.596L162.912,103.714z M159.353,106.203l2.464-2.489 l-2.301-2.33l-2.468,2.491L159.353,106.203z"/></g><g><polygon fill="#F7F8F9" points="162.367 59.314 159.353 62.358 156.503 59.474 159.516 56.434"/><path fill="#3F51B5" d="M162.912,59.314l-3.56,3.594l-3.397-3.435l3.56-3.596L162.912,59.314z M159.353,61.805l2.464-2.49 l-2.301-2.332l-2.468,2.491L159.353,61.805z"/></g><g><polygon fill="#F7F8F9" points="196.877 98.866 193.861 101.911 191.014 99.029 194.024 95.985"/><path fill="#3F51B5" d="M197.423,98.866l-3.563,3.597l-3.398-3.434l3.561-3.598L197.423,98.866z M193.861,101.357l2.467-2.491 l-2.304-2.328l-2.465,2.491L193.861,101.357z"/></g><g><polygon fill="#F7F8F9" points="196.877 64.516 193.861 67.56 191.014 64.682 194.024 61.639"/><path fill="#3F51B5" d="M197.423,64.516l-3.563,3.598l-3.398-3.432l3.561-3.598L197.423,64.516z M193.861,67.01l2.467-2.494 l-2.304-2.33l-2.465,2.496L193.861,67.01z"/></g><polygon fill="#E8A20B" points="220.712 74.371 220.718 87.273 185.678 87.305 185.67 74.406"/><rect width="35.042" height="6.451" x="185.672" y="74.387" fill="#F5BA3C"/><path fill="#3F51B5" d="M146.786,104.584c0.662,0,1.205,0.549,1.205,1.222c0,0.67-0.543,1.219-1.205,1.219 c-0.669,0-1.208-0.549-1.208-1.219C145.578,105.133,146.117,104.584,146.786,104.584z"/><path fill="#3F51B5" d="M146.786,56.426c0.662,0,1.205,0.546,1.205,1.221c0,0.672-0.543,1.217-1.205,1.217 c-0.669,0-1.208-0.545-1.208-1.217C145.578,56.972,146.117,56.426,146.786,56.426z"/></g><g><g><g><path fill="#3F51B5" d="M214.802,154.118l-13.342,13.479c-0.288,0.291-0.749,0.293-1.034,0.007l-43.143-43.599 c-0.284-0.285-0.281-0.755,0.006-1.045l13.343-13.479c0.288-0.291,0.749-0.293,1.033-0.005l43.142,43.596 C215.093,153.362,215.091,153.825,214.802,154.118z M200.952,166.033l12.304-12.429l-42.115-42.558l-12.304,12.431 L200.952,166.033z"/></g><g><path fill="#3F51B5" d="M171.382,116.61l-3.519,3.555c-0.287,0.29-0.749,0.292-1.033,0.007 c-0.284-0.289-0.282-0.755,0.007-1.046l3.517-3.554c0.289-0.292,0.75-0.294,1.033-0.006 C171.672,115.854,171.67,116.319,171.382,116.61z"/></g><g><path fill="#3F51B5" d="M175.291,120.561l-1.76,1.775c-0.288,0.291-0.748,0.294-1.034,0.007 c-0.284-0.286-0.281-0.751,0.006-1.041l1.761-1.781c0.286-0.288,0.749-0.291,1.033-0.005 C175.58,119.801,175.578,120.27,175.291,120.561z"/></g><g><path fill="#3F51B5" d="M179.462,124.774l-3.518,3.559c-0.287,0.287-0.75,0.287-1.034,0.003 c-0.284-0.289-0.281-0.754,0.006-1.046l3.518-3.552c0.287-0.292,0.75-0.294,1.033-0.009 C179.75,124.018,179.748,124.484,179.462,124.774z"/></g><g><path fill="#3F51B5" d="M183.372,128.725l-1.763,1.778c-0.285,0.29-0.746,0.292-1.031,0.004 c-0.283-0.286-0.281-0.753,0.005-1.043l1.761-1.779c0.286-0.288,0.749-0.292,1.033-0.003 C183.661,127.966,183.657,128.436,183.372,128.725z"/></g><g><path fill="#3F51B5" d="M187.543,132.938l-3.521,3.558c-0.287,0.289-0.749,0.293-1.033,0.005s-0.281-0.755,0.006-1.044 l3.52-3.556c0.285-0.291,0.748-0.294,1.033-0.006C187.832,132.183,187.828,132.648,187.543,132.938z"/></g><g><path fill="#3F51B5" d="M191.45,136.889l-1.761,1.778c-0.286,0.29-0.749,0.292-1.032,0.006 c-0.284-0.289-0.282-0.753,0.005-1.041l1.762-1.781c0.287-0.291,0.749-0.293,1.031-0.006 C191.74,136.132,191.737,136.599,191.45,136.889z"/></g><g><path fill="#3F51B5" d="M195.62,141.102l-3.518,3.559c-0.287,0.291-0.75,0.293-1.034,0.005 c-0.283-0.285-0.28-0.754,0.007-1.043l3.52-3.555c0.286-0.29,0.749-0.293,1.031-0.007 C195.91,140.348,195.907,140.813,195.62,141.102z"/></g><g><path fill="#3F51B5" d="M199.53,145.056l-1.759,1.778c-0.289,0.289-0.748,0.29-1.033,0.005 c-0.284-0.288-0.283-0.753,0.003-1.044l1.763-1.778c0.287-0.29,0.75-0.292,1.034-0.006S199.816,144.765,199.53,145.056z"/></g><g><path fill="#3F51B5" d="M203.7,149.269l-3.518,3.557c-0.288,0.29-0.749,0.291-1.032,0.006 c-0.284-0.286-0.281-0.755,0.006-1.046l3.517-3.553c0.287-0.289,0.75-0.295,1.033-0.006 C203.991,148.513,203.988,148.98,203.7,149.269z"/></g><g><path fill="#3F51B5" d="M207.611,153.22l-1.76,1.778c-0.288,0.291-0.75,0.293-1.033,0.006 c-0.284-0.288-0.284-0.753,0.004-1.043l1.763-1.78c0.284-0.289,0.747-0.291,1.032-0.005 C207.9,152.463,207.896,152.929,207.611,153.22z"/></g></g></g><g><path fill="#F9F9F9" stroke="#3F51B5" stroke-miterlimit="10" d="M44.01,67.358l38.44-56.714l-47.357,9.042L44.01,67.358z M59.937,25.27l-10.43,15.686l-2.473-13.224L59.937,25.27z"/><g><path fill="#3F51B5" d="M75.176,14.532c-0.018-0.097,0-0.202,0.06-0.29c0.118-0.176,0.358-0.223,0.532-0.102l1.969,1.355 c0.174,0.121,0.219,0.359,0.1,0.537c-0.119,0.178-0.358,0.222-0.533,0.104l-1.967-1.357 C75.249,14.72,75.194,14.627,75.176,14.532z"/><path fill="#3F51B5" d="M72.548,18.814c-0.019-0.1,0-0.202,0.06-0.293c0.118-0.177,0.356-0.221,0.532-0.101l1.969,1.356 c0.173,0.121,0.218,0.361,0.1,0.535c-0.118,0.18-0.359,0.226-0.532,0.105l-1.969-1.357 C72.621,19.002,72.566,18.909,72.548,18.814z"/><path fill="#3F51B5" d="M69.863,22.79c-0.018-0.097,0-0.202,0.061-0.29c0.118-0.176,0.357-0.221,0.532-0.102l1.968,1.356 c0.173,0.122,0.219,0.362,0.1,0.537c-0.118,0.177-0.358,0.225-0.532,0.102l-1.968-1.355 C69.937,22.977,69.882,22.888,69.863,22.79z"/><path fill="#3F51B5" d="M67.056,26.947c-0.018-0.097,0-0.199,0.061-0.289c0.119-0.177,0.357-0.223,0.532-0.101l1.967,1.354 c0.174,0.12,0.22,0.364,0.101,0.538c-0.119,0.177-0.358,0.223-0.532,0.103l-1.967-1.357 C67.13,27.136,67.074,27.045,67.056,26.947z"/><path fill="#3F51B5" d="M64.371,30.928c-0.017-0.102,0.002-0.206,0.06-0.292c0.119-0.176,0.358-0.224,0.532-0.102l1.967,1.356 c0.176,0.119,0.22,0.361,0.102,0.537c-0.119,0.176-0.358,0.222-0.532,0.102l-1.969-1.357 C64.445,31.113,64.389,31.021,64.371,30.928z"/><path fill="#3F51B5" d="M61.536,34.931c-0.019-0.099,0-0.202,0.06-0.289c0.12-0.177,0.357-0.223,0.531-0.103l1.968,1.357 c0.175,0.12,0.22,0.361,0.101,0.538c-0.12,0.177-0.358,0.22-0.532,0.102l-1.968-1.356 C61.609,35.118,61.554,35.031,61.536,34.931z"/><path fill="#3F51B5" d="M59.002,38.879c-0.019-0.097,0-0.201,0.06-0.288c0.12-0.177,0.356-0.223,0.53-0.103l1.97,1.355 c0.173,0.121,0.219,0.363,0.1,0.538c-0.12,0.175-0.357,0.223-0.533,0.103l-1.968-1.357 C59.075,39.069,59.021,38.977,59.002,38.879z"/><path fill="#3F51B5" d="M56.194,43.037c-0.018-0.1,0-0.202,0.061-0.291c0.118-0.174,0.357-0.22,0.531-0.101l1.969,1.358 c0.174,0.117,0.22,0.361,0.099,0.537c-0.118,0.176-0.357,0.221-0.532,0.102l-1.967-1.357 C56.268,43.225,56.213,43.136,56.194,43.037z"/><path fill="#3F51B5" d="M53.389,47.194c-0.019-0.097-0.001-0.199,0.058-0.289c0.119-0.177,0.358-0.222,0.532-0.103l1.969,1.357 c0.176,0.123,0.22,0.362,0.102,0.537c-0.119,0.179-0.357,0.223-0.533,0.101l-1.968-1.355 C53.46,47.381,53.405,47.293,53.389,47.194z"/><path fill="#3F51B5" d="M50.581,51.354c-0.019-0.1,0-0.203,0.06-0.291c0.119-0.175,0.356-0.222,0.532-0.102l1.968,1.358 c0.175,0.12,0.22,0.359,0.1,0.537c-0.118,0.177-0.356,0.221-0.531,0.103l-1.968-1.357 C50.654,51.541,50.599,51.452,50.581,51.354z"/><path fill="#3F51B5" d="M46.556,56.058c-0.018-0.102,0.001-0.212,0.063-0.304c0.127-0.185,0.377-0.232,0.559-0.106l2.07,1.427 c0.183,0.126,0.231,0.379,0.104,0.563c-0.125,0.188-0.375,0.235-0.559,0.108l-2.068-1.425 C46.633,56.256,46.575,56.162,46.556,56.058z"/><path fill="#3F51B5" d="M43.734,60.241c-0.019-0.104,0.002-0.212,0.063-0.306c0.124-0.185,0.375-0.234,0.559-0.106l2.069,1.425 c0.183,0.127,0.231,0.381,0.105,0.565c-0.126,0.187-0.376,0.231-0.56,0.106l-2.068-1.425 C43.812,60.437,43.753,60.341,43.734,60.241z"/><path fill="#3F51B5" d="M72.043,15.417c-0.018-0.095,0-0.201,0.059-0.288c0.12-0.177,0.358-0.221,0.533-0.102l3.787,2.611 c0.174,0.12,0.219,0.359,0.101,0.536c-0.12,0.177-0.358,0.222-0.533,0.101l-3.787-2.608 C72.116,15.604,72.062,15.516,72.043,15.417z"/><path fill="#3F51B5" d="M69.387,19.548c-0.018-0.097,0-0.203,0.06-0.29c0.118-0.177,0.357-0.222,0.531-0.101l3.788,2.609 c0.174,0.123,0.22,0.362,0.101,0.54c-0.121,0.175-0.358,0.221-0.532,0.099l-3.786-2.608 C69.459,19.733,69.405,19.646,69.387,19.548z"/><path fill="#3F51B5" d="M66.731,23.675c-0.018-0.094,0-0.198,0.059-0.288c0.119-0.178,0.356-0.223,0.532-0.102l3.787,2.611 c0.174,0.12,0.221,0.359,0.1,0.535c-0.118,0.179-0.357,0.224-0.532,0.101l-3.786-2.607 C66.803,23.865,66.749,23.774,66.731,23.675z"/><path fill="#3F51B5" d="M63.896,27.683c-0.019-0.095,0-0.201,0.059-0.288c0.119-0.178,0.357-0.224,0.532-0.103l3.787,2.611 c0.176,0.119,0.221,0.358,0.101,0.537c-0.118,0.175-0.356,0.222-0.531,0.099l-3.787-2.608 C63.968,27.871,63.913,27.78,63.896,27.683z"/><path fill="#3F51B5" d="M61.061,31.691c-0.02-0.1,0.001-0.202,0.058-0.291c0.12-0.18,0.358-0.224,0.532-0.104l3.788,2.61 c0.174,0.118,0.218,0.36,0.1,0.537c-0.119,0.179-0.357,0.225-0.531,0.102l-3.788-2.608 C61.133,31.877,61.078,31.785,61.061,31.691z"/><path fill="#3F51B5" d="M58.225,35.695c-0.018-0.099,0-0.202,0.06-0.291c0.119-0.175,0.356-0.221,0.532-0.102l3.787,2.609 c0.174,0.122,0.218,0.362,0.1,0.537c-0.119,0.179-0.358,0.225-0.532,0.103l-3.789-2.608 C58.297,35.882,58.242,35.793,58.225,35.695z"/><path fill="#3F51B5" d="M55.568,39.824c-0.018-0.095,0-0.201,0.059-0.291c0.12-0.175,0.358-0.22,0.532-0.101l3.787,2.609 c0.175,0.122,0.22,0.36,0.101,0.537s-0.357,0.226-0.532,0.103l-3.787-2.609C55.641,40.012,55.586,39.921,55.568,39.824z"/><path fill="#3F51B5" d="M52.732,43.832c-0.018-0.099,0.001-0.205,0.061-0.29c0.118-0.178,0.355-0.224,0.532-0.103l3.785,2.608 c0.177,0.124,0.221,0.362,0.102,0.538c-0.119,0.178-0.358,0.223-0.532,0.102l-3.787-2.608 C52.806,44.017,52.75,43.928,52.732,43.832z"/><path fill="#3F51B5" d="M50.227,47.928c-0.019-0.095,0-0.197,0.06-0.284c0.118-0.179,0.357-0.226,0.532-0.106l3.786,2.612 c0.175,0.121,0.219,0.359,0.101,0.536c-0.119,0.177-0.357,0.223-0.531,0.103l-3.788-2.608 C50.3,48.118,50.244,48.029,50.227,47.928z"/><path fill="#3F51B5" d="M47.57,52.06c-0.017-0.098,0-0.201,0.06-0.288c0.119-0.177,0.357-0.224,0.532-0.103l3.787,2.609 c0.175,0.12,0.218,0.362,0.101,0.536c-0.119,0.18-0.358,0.224-0.533,0.103l-3.786-2.61 C47.643,52.247,47.589,52.157,47.57,52.06z"/><path fill="#3F51B5" d="M43.362,56.644c-0.02-0.103-0.001-0.211,0.063-0.306c0.125-0.186,0.375-0.234,0.559-0.107l3.981,2.744 c0.183,0.125,0.23,0.379,0.105,0.564c-0.125,0.188-0.374,0.233-0.56,0.106l-3.979-2.742 C43.438,56.841,43.382,56.742,43.362,56.644z"/></g></g><g><rect width="55" height="51" x="442.5" y="62.5" fill="#3949AB" stroke="#3949AB" stroke-miterlimit="10"/><path fill="#E8A20B" d="M456.459,71.354l2.43,2.874l1.277,1.606l1.283,1.629c0.833,1.109,1.629,2.26,2.436,3.387 c0.783,1.18,1.542,2.405,2.304,3.607l2.13,3.837c0.642,1.346,1.299,2.675,1.914,4.034c0.563,1.391,1.142,2.771,1.683,4.172 l1.465,4.263l-6.583-1.149l7.16-10.519c2.395-3.532,4.819-7.051,7.266-10.553l3.728-5.196l3.828-5.098l3.934-4.953l4.075-4.759 l4.228-4.528l4.395-4.222l4.572-3.853l4.75-3.42c1.646-0.975,3.269-1.994,4.915-2.927c1.693-0.791,3.367-1.631,5.057-2.372 c1.732-0.596,3.447-1.229,5.168-1.785l5.244-1.177L530,36.08c-1.672,0.762-3.317,1.604-4.966,2.397 c-1.612,0.936-3.192,1.967-4.777,2.939c-11.425,6.999-19.122,18.008-26.064,29.208c-7.024,11.333-14.822,24.283-21.364,35.895 l-3.447,6.116l-3.136-7.267l-1.503-3.476c-0.535-1.115-1.104-2.199-1.644-3.298c-0.587-1.048-1.204-2.066-1.794-3.101 l-1.959-2.911c-0.713-0.913-1.397-1.84-2.116-2.739c-0.757-0.866-1.497-1.759-2.259-2.601l-2.333-2.44l-2.617-2.561 L456.459,71.354z"/></g><g><g><polygon fill="#3F51B5" points="72.191 96 54.027 143.898 50.581 142.479 68.745 94.58"/><polygon fill="#3F51B5" points="54.796 137.736 51.178 147.281 50.491 146.999 54.11 137.454"/></g><g><polygon fill="#3F51B5" points="94.898 137.561 98.814 146.977 98.136 147.281 94.22 137.865"/><polygon fill="#3F51B5" points="78.793 94.58 98.444 141.837 95.044 143.373 75.391 96.118"/></g><path fill="#FFF" d="M84.254,88.439c0,5.993-4.662,10.854-10.413,10.854c-5.75,0-10.414-4.861-10.414-10.854 c0-5.994,4.663-10.852,10.414-10.852C79.593,77.588,84.254,82.445,84.254,88.439L84.254,88.439z M84.254,88.439"/><path fill="#3F51B5" d="M77.253,88.439c0,1.966-1.528,3.558-3.412,3.558c-1.885,0-3.414-1.592-3.414-3.558 c0-1.963,1.528-3.557,3.414-3.557C75.726,84.883,77.253,86.477,77.253,88.439L77.253,88.439z M77.253,88.439"/><rect width="4.407" height="6.258" x="71.638" y="70.692" fill="#3F51B5"/><g><rect width="46.945" height="1.717" x="50.368" y="121.336" fill="#3F51B5"/><rect width="4.633" height="8.153" x="71.524" y="118.119" fill="#3F51B5"/></g></g><g><g><path fill="#3F51B5" d="M55.938,44.523"/><path fill="#3F51B5" d="M109.121,41.502c18.037,6.823,31.324,20.785,37.869,37.463l0.609,0.229 c-0.449-1.163-0.928-2.319-1.445-3.467c-7.262-16.096-20.355-28.401-36.873-34.648"/><path fill="#3F51B5" d="M140.83,138.868l0.45,0.17c2.569-3.957,4.736-8.218,6.445-12.736c2.432-6.43,3.829-13.077,4.204-19.749 l-0.471-0.178c-0.344,6.602-1.696,13.26-4.157,19.766C145.578,130.697,143.394,134.949,140.83,138.868z"/><path fill="#3F51B5" d="M122.24,157.557c-17.023,11.291-39.053,14.526-59.576,6.763 c-33.862-12.807-50.989-50.775-38.181-84.638c2.46-6.505,5.854-12.392,9.964-17.566l-0.471-0.179 c-4.133,5.249-7.487,11.156-9.917,17.585c-6.25,16.518-5.691,34.478,1.57,50.572c7.261,16.098,20.356,28.403,36.873,34.652 c16.516,6.247,34.478,5.688,50.575-1.573c3.421-1.543,6.67-3.353,9.728-5.401L122.24,157.557z"/></g><g><path fill="#3F51B5" d="M88.039,48.534c4.169,0.165,8.383,0.812,12.575,1.988c28.297,7.951,45.084,36.999,38.131,65.335 l0.418,0.119c3.337-13.568,1.433-27.671-5.438-39.912c-7.171-12.778-18.889-21.997-32.994-25.961 c-4.269-1.199-8.6-1.869-12.921-2.029L88.039,48.534z"/><path fill="#3F51B5" d="M64.497,52.903l-0.207-0.414c-1.781,0.766-3.531,1.627-5.246,2.589 C46.803,61.949,37.83,72.997,33.613,86.316l0.421,0.116C38.979,70.841,50.416,58.945,64.497,52.903z"/><path fill="#3F51B5" d="M130.813,134.437c0.663-0.946,1.296-1.914,1.898-2.905l-0.458-0.127 c-0.536,0.872-1.097,1.724-1.677,2.559L130.813,134.437z"/><path fill="#3F51B5" d="M113.11,150.534l-0.207-0.415c-12.225,6.996-27.133,9.285-41.732,5.183 c-23.918-6.723-39.612-28.519-39.694-52.217l-0.459-0.128c-0.007,9.292,2.369,18.478,7.042,26.802 c7.171,12.778,18.889,21.996,32.995,25.961c14.105,3.964,28.909,2.196,41.686-4.975 C112.864,150.676,112.985,150.605,113.11,150.534z"/></g><g><path fill="#3F51B5" d="M46.99,147.09c0.656,0.567,1.334,1.127,2.013,1.664l0.271-0.342c-0.676-0.532-1.349-1.09-1.999-1.652 L46.99,147.09z"/><path fill="#3F51B5" d="M33.316,75.895l-0.387-0.195c-0.392,0.773-0.771,1.566-1.125,2.353l0.397,0.179 C32.554,77.449,32.93,76.663,33.316,75.895z"/><path fill="#3F51B5" d="M35.855,71.387l-0.369-0.231c-0.457,0.735-0.903,1.489-1.329,2.244l0.38,0.212 C34.958,72.863,35.401,72.115,35.855,71.387z"/><path fill="#3F51B5" d="M45.729,59.433l-0.295-0.318c-0.638,0.59-1.268,1.201-1.876,1.816l0.308,0.307 C44.47,60.625,45.097,60.018,45.729,59.433z"/><path fill="#3F51B5" d="M29.479,85.504l-0.415-0.124c-0.249,0.828-0.483,1.676-0.696,2.517l0.42,0.107 C29,87.168,29.233,86.327,29.479,85.504z"/><path fill="#3F51B5" d="M38.784,67.117l-0.347-0.262c-0.521,0.691-1.036,1.405-1.525,2.12l0.358,0.245 C37.757,68.512,38.266,67.803,38.784,67.117z"/><path fill="#3F51B5" d="M42.085,63.121l-0.322-0.291c-0.582,0.643-1.156,1.307-1.707,1.975l0.333,0.277 C40.938,64.42,41.508,63.759,42.085,63.121z"/><path fill="#3F51B5" d="M43.197,143.5c0.602,0.622,1.228,1.24,1.856,1.836l0.298-0.315c-0.625-0.59-1.245-1.204-1.843-1.823 L43.197,143.5z"/><path fill="#3F51B5" d="M36.994,135.146l-0.36,0.242c0.484,0.72,0.991,1.438,1.505,2.134l0.348-0.258 C37.977,136.572,37.474,135.859,36.994,135.146z"/><path fill="#3F51B5" d="M40.075,139.315l-0.337,0.271c0.546,0.674,1.113,1.346,1.687,1.994l0.324-0.286 C41.18,140.649,40.616,139.984,40.075,139.315z"/><path fill="#3F51B5" d="M28.209,90.529l-0.427-0.087c-0.176,0.849-0.334,1.713-0.471,2.569l0.428,0.066 C27.876,92.231,28.035,91.373,28.209,90.529z"/><path fill="#3F51B5" d="M27.383,95.649l-0.432-0.052c-0.1,0.86-0.183,1.738-0.245,2.603l0.432,0.03 C27.202,97.371,27.284,96.504,27.383,95.649z"/><path fill="#3F51B5" d="M27.231,107.757c-0.053-0.583-0.101-1.165-0.136-1.747l-0.433,0.027 c0.04,0.663,0.096,1.332,0.159,1.995L27.231,107.757z"/><path fill="#3F51B5" d="M27.009,100.821l-0.434-0.012c-0.023,0.867-0.028,1.748-0.014,2.613l0.434-0.008 C26.981,102.557,26.986,101.683,27.009,100.821z"/><path fill="#3F51B5" d="M31.188,80.614l-0.404-0.16c-0.319,0.803-0.629,1.625-0.914,2.442l0.41,0.144 C30.563,82.228,30.869,81.412,31.188,80.614z"/><path fill="#3F51B5" d="M98.711,45.272l0.098-0.422c-0.846-0.194-1.706-0.372-2.557-0.527l-0.078,0.428 C97.016,44.905,97.871,45.081,98.711,45.272z"/><path fill="#3F51B5" d="M108.729,48.064c-0.795-0.338-1.61-0.663-2.424-0.966l-0.151,0.406 c0.807,0.301,1.616,0.624,2.405,0.959L108.729,48.064z"/><path fill="#3F51B5" d="M103.841,46.239c-0.822-0.267-1.664-0.52-2.5-0.749l-0.115,0.417c0.829,0.229,1.664,0.479,2.481,0.745 L103.841,46.239z"/><path fill="#3F51B5" d="M113.029,50.101c-0.634-0.332-1.277-0.657-1.92-0.965l-0.187,0.392c0.568,0.271,1.135,0.558,1.695,0.85 L113.029,50.101z"/><path fill="#3F51B5" d="M132.685,67.485l0.349-0.258c-0.465-0.63-0.951-1.253-1.442-1.865l-0.362,0.243 C131.727,66.222,132.214,66.853,132.685,67.485z"/><path fill="#3F51B5" d="M34.3,130.745l-0.363,0.242c0.412,0.74,0.843,1.482,1.284,2.205l0.372-0.228 C35.148,132.238,34.711,131.491,34.3,130.745z"/><path fill="#3F51B5" d="M93.671,43.908c-0.856-0.119-1.73-0.22-2.594-0.301l-0.042,0.433c0.858,0.08,1.726,0.179,2.578,0.299 L93.671,43.908z"/><path fill="#3F51B5" d="M88.47,43.422c-0.865-0.043-1.744-0.068-2.613-0.072l-0.003,0.435c0.863,0.005,1.735,0.027,2.594,0.07 L88.47,43.422z"/><path fill="#3F51B5" d="M72.876,44.728c-0.848,0.187-1.704,0.396-2.544,0.619l0.113,0.421c0.834-0.224,1.684-0.432,2.525-0.615 L72.876,44.728z"/><path fill="#3F51B5" d="M83.243,43.395c-0.867,0.034-1.746,0.087-2.609,0.158l0.035,0.436c0.858-0.072,1.73-0.127,2.59-0.16 L83.243,43.395z"/><path fill="#3F51B5" d="M78.03,43.83c-0.859,0.11-1.731,0.242-2.587,0.39l0.076,0.429c0.85-0.147,1.712-0.278,2.568-0.388 L78.03,43.83z"/><path fill="#3F51B5" d="M95.702,160.591c0.858-0.147,1.722-0.317,2.569-0.502l-0.094-0.424 c-0.84,0.185-1.698,0.351-2.549,0.498L95.702,160.591z"/><path fill="#3F51B5" d="M130.78,139.768l0.335,0.278c0.551-0.667,1.097-1.356,1.62-2.049l-0.348-0.262 C131.868,138.423,131.327,139.106,130.78,139.768z"/><path fill="#3F51B5" d="M138.983,126.63l0.396,0.178c0.357-0.789,0.702-1.596,1.024-2.4l-0.405-0.16 C139.68,125.044,139.338,125.845,138.983,126.63z"/><path fill="#3F51B5" d="M51.088,150.326c0.701,0.504,1.423,1.002,2.148,1.474l0.238-0.362 c-0.719-0.469-1.437-0.962-2.133-1.463L51.088,150.326z"/><path fill="#3F51B5" d="M136.642,131.245l0.379,0.214c0.424-0.754,0.839-1.527,1.231-2.299l-0.389-0.195 C137.476,129.729,137.065,130.496,136.642,131.245z"/><path fill="#3F51B5" d="M138.154,76.43l0.391-0.193c-0.384-0.775-0.792-1.553-1.212-2.314l-0.379,0.211 C137.369,74.887,137.774,75.659,138.154,76.43z"/><path fill="#3F51B5" d="M134.181,69.604l0.072,0.104c0.48,0.717,0.952,1.451,1.398,2.184l0.371-0.228 c-0.45-0.736-0.924-1.476-1.41-2.198l-0.07-0.105L134.181,69.604z"/><path fill="#3F51B5" d="M140.25,81.17l0.406-0.157c-0.315-0.807-0.653-1.619-1.003-2.41l-0.397,0.174 C139.602,79.564,139.938,80.368,140.25,81.17z"/><path fill="#3F51B5" d="M143.905,96.268l0.434-0.046c-0.091-0.864-0.201-1.738-0.33-2.595l-0.43,0.063 C143.707,94.54,143.816,95.407,143.905,96.268z"/><path fill="#3F51B5" d="M143.138,91.131l0.426-0.084c-0.167-0.85-0.353-1.711-0.559-2.557l-0.422,0.102 C142.786,89.432,142.973,90.286,143.138,91.131z"/><path fill="#3F51B5" d="M141.914,86.081l0.417-0.121c-0.241-0.835-0.505-1.674-0.785-2.492l-0.41,0.139 C141.413,84.42,141.674,85.253,141.914,86.081z"/><path fill="#3F51B5" d="M133.904,135.633l0.357,0.246c0.491-0.714,0.972-1.446,1.428-2.18l-0.369-0.23 C134.867,134.195,134.391,134.924,133.904,135.633z"/><path fill="#3F51B5" d="M69.808,159.296c0.836,0.231,1.686,0.447,2.531,0.643l0.098-0.426 c-0.839-0.193-1.684-0.406-2.514-0.636L69.808,159.296z"/><path fill="#3F51B5" d="M74.895,160.468c0.853,0.157,1.72,0.297,2.58,0.417l0.06-0.43c-0.853-0.12-1.714-0.26-2.559-0.415 L74.895,160.468z"/><path fill="#3F51B5" d="M80.069,161.188c0.863,0.084,1.74,0.146,2.606,0.19l0.023-0.435c-0.86-0.044-1.731-0.106-2.587-0.188 L80.069,161.188z"/><path fill="#3F51B5" d="M55.447,153.18c0.742,0.44,1.507,0.871,2.271,1.28l0.206-0.384c-0.759-0.406-1.518-0.832-2.253-1.27 L55.447,153.18z"/><path fill="#3F51B5" d="M85.289,161.451c0.868,0.007,1.747-0.008,2.615-0.041l-0.017-0.435 c-0.861,0.034-1.734,0.048-2.596,0.042L85.289,161.451z"/><path fill="#3F51B5" d="M60.044,155.639c0.779,0.372,1.58,0.733,2.377,1.073l0.17-0.399c-0.792-0.337-1.585-0.697-2.359-1.067 L60.044,155.639z"/><path fill="#3F51B5" d="M64.844,157.681c0.812,0.305,1.642,0.593,2.463,0.862l0.134-0.413 c-0.816-0.267-1.639-0.555-2.444-0.855L64.844,157.681z"/><path fill="#3F51B5" d="M119.388,150.297l0.251,0.354c0.712-0.5,1.418-1.022,2.102-1.55l-0.266-0.343 C120.797,149.28,120.096,149.797,119.388,150.297z"/><path fill="#3F51B5" d="M90.513,161.252c0.864-0.07,1.741-0.163,2.601-0.271l-0.055-0.431c-0.854,0.108-1.725,0.199-2.581,0.27 L90.513,161.252z"/><path fill="#3F51B5" d="M127.3,143.609l0.309,0.308c0.609-0.616,1.214-1.256,1.795-1.897l-0.322-0.291 C128.504,142.367,127.906,142.999,127.3,143.609z"/><path fill="#3F51B5" d="M123.493,147.127l0.279,0.332c0.662-0.557,1.32-1.139,1.958-1.729l-0.296-0.319 C124.801,145.996,124.147,146.574,123.493,147.127z"/><path fill="#3F51B5" d="M115.242,153.472c0.746-0.432,1.497-0.893,2.229-1.362l-0.233-0.365 c-0.729,0.467-1.473,0.922-2.212,1.353L115.242,153.472z"/><path fill="#3F51B5" d="M100.815,159.47c0.837-0.224,1.682-0.468,2.509-0.729l-0.131-0.415 c-0.821,0.259-1.658,0.502-2.49,0.725L100.815,159.47z"/><path fill="#3F51B5" d="M105.797,157.9c0.813-0.295,1.632-0.615,2.432-0.948l-0.167-0.402 c-0.795,0.332-1.606,0.649-2.416,0.943L105.797,157.9z"/><path fill="#3F51B5" d="M110.618,155.896c0.786-0.369,1.572-0.759,2.341-1.16l-0.202-0.386 c-0.762,0.399-1.543,0.787-2.323,1.153L110.618,155.896z"/></g></g><g><g><g><g><g><g><path fill="#3F51B5" d="M121.455,95.183c-0.307-1.456-0.915-2.802-1.756-3.963l1.246-1.309l-2.762-2.63l-1.247,1.309 c-1.202-0.785-2.575-1.326-4.045-1.561l-0.044-1.805l-3.812,0.09l0.045,1.809c-0.384,0.078-0.761,0.182-1.125,0.303 c-1.028,0.34-1.984,0.834-2.84,1.454l-1.31-1.247l-2.63,2.762l1.31,1.248c-0.786,1.2-1.326,2.571-1.561,4.043l-1.808,0.045 l0.093,3.814l1.808-0.046c0.306,1.46,0.915,2.806,1.756,3.966l-1.246,1.309l2.76,2.632l1.249-1.31 c1.201,0.781,2.574,1.325,4.046,1.557l0.043,1.811l3.813-0.094l-0.044-1.808c0.384-0.08,0.757-0.184,1.125-0.302 c1.027-0.342,1.984-0.834,2.841-1.455l1.309,1.246l2.629-2.762l-1.309-1.245c0.784-1.205,1.325-2.574,1.56-4.048 l1.807-0.043l-0.093-3.813L121.455,95.183z M116.678,97.208c0.059,2.455-1.513,4.568-3.731,5.301 c-0.495,0.165-1.027,0.26-1.576,0.273c-3.005,0.073-5.5-2.302-5.575-5.307c-0.06-2.453,1.515-4.567,3.731-5.302 c0.496-0.164,1.025-0.259,1.575-0.271C114.108,91.828,116.604,94.203,116.678,97.208z"/><polygon fill="#3F51B5" points="110.09 99.329 108.943 97.342 110.09 95.357 112.382 95.357 113.529 97.342 112.382 99.329"/></g></g></g></g></g><path fill="#FFF" d="M128.273,98.158v-1.921c-0.432,0.028-1.367-0.001-1.87-0.372c-0.252-0.186-0.375-0.45-0.378-0.806 c0-1.523,0.004-3.215,0.008-4.87c0.003-1.586,0.006-3.14,0.006-4.481c0-0.536-0.243-0.987-0.702-1.302 c-1.055-0.723-2.907-0.449-3.114-0.414l0.277,1.182c0.425-0.067,1.498-0.123,1.916,0.163c0.085,0.06,0.174,0.149,0.174,0.371 c0,1.341-0.004,2.895-0.007,4.481c-0.004,1.654-0.008,3.347-0.008,4.873c0.005,0.706,0.308,1.297,0.873,1.711 c0.296,0.217,0.636,0.365,0.98,0.469c-0.351,0.115-0.691,0.275-0.972,0.503c-0.438,0.352-0.67,0.814-0.67,1.338 c0,1.341,0.004,2.896,0.007,4.481c0.005,1.655,0.008,3.346,0.008,4.864c-0.003,0.493-0.237,0.642-0.314,0.69 c-0.51,0.323-1.594,0.177-1.932,0.102l-0.386,1.162c0.107,0.024,0.663,0.145,1.337,0.145c0.604,0,1.301-0.097,1.854-0.444 c0.404-0.254,0.886-0.745,0.892-1.65c0-1.522-0.004-3.214-0.007-4.871c-0.004-1.585-0.007-3.138-0.007-4.479 c0-0.199,0.07-0.346,0.227-0.471C126.891,98.266,127.808,98.17,128.273,98.158z"/><path fill="#FFF" d="M93.738,96.281v1.92c0.431-0.027,1.367,0.002,1.87,0.372c0.252,0.187,0.375,0.451,0.378,0.806 c0,1.523-0.004,3.215-0.008,4.87c-0.003,1.587-0.007,3.14-0.007,4.481c0,0.536,0.243,0.987,0.702,1.303 c1.055,0.723,2.907,0.448,3.114,0.414l-0.276-1.183c-0.426,0.067-1.498,0.123-1.916-0.163c-0.085-0.059-0.173-0.148-0.173-0.371 c0-1.34,0.004-2.894,0.007-4.48c0.004-1.655,0.008-3.348,0.008-4.874c-0.005-0.706-0.307-1.297-0.873-1.711 c-0.297-0.217-0.636-0.364-0.981-0.469c0.351-0.115,0.692-0.275,0.972-0.503c0.438-0.351,0.67-0.814,0.67-1.336 c0-1.341-0.003-2.896-0.007-4.481c-0.005-1.655-0.008-3.349-0.008-4.866c0.003-0.492,0.237-0.642,0.314-0.69 c0.51-0.322,1.594-0.176,1.932-0.101l0.386-1.161c-0.108-0.025-0.664-0.146-1.336-0.146c-0.604,0-1.302,0.097-1.854,0.444 c-0.404,0.255-0.886,0.745-0.892,1.65c0,1.521,0.004,3.214,0.007,4.87c0.004,1.585,0.007,3.14,0.007,4.48 c0,0.197-0.07,0.344-0.227,0.47C95.121,96.173,94.203,96.269,93.738,96.281z"/></g></g></g></switch></svg>