<svg xmlns="http://www.w3.org/2000/svg" xmlns:xlink="http://www.w3.org/1999/xlink" id="Layer_1" width="552" height="327" x="0" y="0" enable-background="new 0 0 552 327" version="1.0" viewBox="0 0 552 327" xml:space="preserve"><metadata><?xpacket begin="﻿" id="W5M0MpCehiHzreSzNTczkc9d"?><?xpacket end="w"?></metadata><switch><g><rect width="552" height="327" y="1" fill="#FFF"/><g><rect width="43" height="43" x="88.5" y="237.5" fill="#E8A20B" stroke="#000" stroke-miterlimit="10"/><path fill="#3949AB" d="M73.194,239.315v53.682h73.688v-53.682l-36.843-36.844L73.194,239.315z M108.526,276.309H92.289v-16.236 h16.237V276.309z M108.526,257.047H92.289v-16.235h16.237V257.047z M111.551,240.812h16.236v16.235h-16.236V240.812z M111.551,260.072h16.236v16.236h-16.236V260.072z"/><polygon fill="#3949AB" points="110.039 185.75 55.32 240.468 62.214 247.361 110.039 199.537 157.863 247.361 164.757 240.468"/></g><g><polygon fill="#4B60E0" points="431.94 303.352 513.918 276.308 513.918 234.897 431.94 234.897"/><polygon fill="#3949AB" points="431.94 234.897 359.26 234.897 359.26 279.688 431.94 303.352"/><polygon fill="#3949AB" points="355.185 234.052 355.185 241.856 431.83 247.514 517.361 241.73 517.361 234.052"/><polygon fill="#4B60E0" points="355.185 234.052 355.185 236.604 432.061 242.233 517.361 236.233 517.361 234.052"/><path fill="#3949AB" d="M500.43,226.565h-62.573v-8.45h62.573V226.565z M500.43,206.677l-62.573-3.532v-8.451l62.573,3.532 V206.677z M500.43,186.786l-62.573-7.064v-8.45l62.573,7.063V186.786z M500.43,166.896L437.856,156.3v-8.45l62.573,10.596 V166.896z M500.43,147.006l-62.573-14.128v-8.451l62.573,14.128V147.006z M500.43,127.116l-62.573-17.661v-8.449l62.573,17.659 V127.116z M500.43,107.226l-62.573-21.191v-8.452l62.573,21.191V107.226z M500.43,87.336l-62.573-24.725v-8.451l62.573,24.724 V87.336z M505.5,70.218l-73.525-31.269v199.985l73.525-3.072V70.69C505.707,70.605,505.738,70.458,505.5,70.218"/><polygon fill="#4B60E0" points="368.591 70.218 368.591 80.889 426.903 54.161 426.903 62.612 368.591 89.339 368.591 100.492 426.903 77.583 426.903 86.035 368.591 108.942 368.591 120.096 426.903 101.006 426.903 109.455 368.591 128.547 368.591 139.7 426.903 124.427 426.903 132.878 368.591 148.15 368.591 159.304 426.903 147.85 426.903 156.3 368.591 167.755 368.591 178.908 426.903 171.271 426.903 179.722 368.591 187.358 368.591 198.512 426.903 194.693 426.903 203.145 368.591 206.962 368.591 218.115 426.903 218.115 426.903 226.565 368.591 226.565 368.591 235.862 431.975 238.935 431.975 38.949"/></g><g><g><g><line x1="116" x2="122" y1="306" y2="306" fill="none" stroke="#E8A20B" stroke-miterlimit="10" stroke-width="4"/><line x1="126" x2="155" y1="306" y2="306" fill="none" stroke="#E8A20B" stroke-dasharray="11 4" stroke-miterlimit="10" stroke-width="4"/><polyline fill="none" stroke="#E8A20B" stroke-miterlimit="10" stroke-width="4" points="157 306 162.94 306 166.375 301.06"/><polyline fill="none" stroke="#E8A20B" stroke-dasharray="12.274 5.114" stroke-miterlimit="10" stroke-width="4" points="169.248 296.85 192.67 262.873 233.927 250.352"/><polyline fill="none" stroke="#E8A20B" stroke-miterlimit="10" stroke-width="4" points="236.374 249.608 242.115 247.866 243.668 242.071"/><line x1="244.927" x2="269.973" y1="237.377" y2="143.966" fill="none" stroke="#E8A20B" stroke-dasharray="11.664 4.86" stroke-miterlimit="10" stroke-width="4"/><polyline fill="none" stroke="#E8A20B" stroke-miterlimit="10" stroke-width="4" points="270.603 141.62 272.156 135.824 277.863 133.973"/><line x1="283.542" x2="319.314" y1="132.131" y2="120.528" fill="none" stroke="#E8A20B" stroke-dasharray="14.326 5.969" stroke-miterlimit="10" stroke-width="4"/><polyline fill="none" stroke="#E8A20B" stroke-miterlimit="10" stroke-width="4" points="322.153 119.607 327.86 117.756 329.589 112.01"/><line x1="330.98" x2="349.219" y1="107.381" y2="46.744" fill="none" stroke="#E8A20B" stroke-dasharray="11.601 4.834" stroke-miterlimit="10" stroke-width="4"/><line x1="349.915" x2="351.644" y1="44.429" y2="38.684" fill="none" stroke="#E8A20B" stroke-miterlimit="10" stroke-width="4"/></g></g><g><path fill="#E8A20B" d="M324.418,55.007c0.322-0.833,0.72-1.624,1.1-2.429c0.403-0.785,0.813-1.574,1.255-2.336 c0.444-0.761,0.887-1.53,1.367-2.268c0.482-0.736,0.944-1.496,1.466-2.205c0.517-0.714,1.005-1.458,1.558-2.146 c0.547-0.693,1.08-1.405,1.645-2.088l1.747-2.016c0.583-0.671,1.23-1.292,1.848-1.941c0.612-0.654,1.267-1.268,1.942-1.869 c0.676-0.6,1.32-1.232,2.038-1.795l2.163-1.691c0.725-0.562,1.54-1.035,2.31-1.556c0.763-0.523,1.584-1.002,2.441-1.428 c0.855-0.43,1.664-0.91,2.604-1.246c0.923-0.355,1.802-0.761,2.782-1.02l2.981-0.709l3.061-0.728l1.219,2.996 c0.299,0.734,0.562,1.483,0.837,2.224c0.24,0.736,0.435,1.461,0.65,2.192c0.234,0.731,0.331,1.452,0.502,2.177 c0.164,0.726,0.296,1.445,0.407,2.162c0.106,0.718,0.23,1.441,0.304,2.155l0.233,2.145c0.09,1.43,0.223,2.851,0.229,4.273 c0.053,1.42,0.022,2.839-0.006,4.254c-0.061,1.416-0.123,2.828-0.261,4.238c-0.117,1.41-0.292,2.817-0.505,4.221 c-0.215,1.403-0.48,2.805-0.834,4.198c-0.853-2.739-1.561-5.447-2.243-8.14l-1.979-8.001l-0.989-3.928l-0.512-1.934 c-0.157-0.649-0.372-1.268-0.545-1.903c-0.167-0.638-0.35-1.264-0.556-1.871c-0.203-0.605-0.381-1.243-0.602-1.818 c-0.216-0.583-0.413-1.184-0.638-1.749c-0.238-0.542-0.491-1.076-0.707-1.624l4.278,2.267c-0.67,0.188-1.34,0.366-2.012,0.534 c-0.336,0.056-0.677,0.25-1.016,0.372l-1.027,0.385c-0.691,0.213-1.368,0.609-2.053,0.934c-0.34,0.171-0.686,0.333-1.033,0.491 c-0.346,0.169-0.682,0.382-1.023,0.571c-0.68,0.397-1.37,0.757-2.047,1.183l-2.039,1.282l-2.021,1.367 c-0.688,0.441-1.339,0.941-2.014,1.421c-0.668,0.488-1.362,0.941-2.012,1.463l-2.017,1.495l-4.021,3.099l-4.069,3.162 l-2.071,1.591L324.418,55.007z"/></g></g><path fill="#C2C2C2" d="M27.157,157.158c6.125,0.453,12.136,0.234,18.572,0.068c1.861-0.049,3.722-0.094,5.583-0.12 c2.94-0.042,5.88-0.037,8.817,0.118c2.845,0.15,5.729,0.562,8.58,0.369c2.862-0.191,6.342-1.491,7.466-4.375 c0.809-2.077,0.77-4.938-0.44-6.856c-0.598-0.951-1.813-2.086-2.901-2.449c-1.022-0.342-2.578-0.472-3.63-0.201 c-1.747,0.449-3.397,1.433-4.924,2.37c-0.509,0.313-1.013,0.633-1.517,0.953c0.865-0.55-1.841-5.276-2.236-6.038 c-2.021-3.893-5.714-8.664-10.724-7.851c-2.262,0.366-4.635,1.514-6.025,3.378c-2.144,2.873-2.478,6.553-2.854,10 c-1.964-2.185-4.06-4.46-6.968-5.323c-2.522-0.747-5.315-0.307-7.518,1.119c-3.519,2.277-4.296,7.016-3.004,11.127 c0.91,2.898,2.615,3.96,5.699,3.82L27.157,157.158z"/><path fill="#C2C2C2" d="M469.066,61.834c9.145,0.677,18.119,0.351,27.729,0.103c2.777-0.073,5.557-0.14,8.335-0.18 c4.391-0.063,8.781-0.055,13.166,0.177c4.247,0.225,8.553,0.838,12.809,0.551c4.273-0.285,9.47-2.227,11.148-6.532 c1.207-3.101,1.148-7.371-0.656-10.236c-0.894-1.421-2.709-3.114-4.332-3.657c-1.526-0.51-3.848-0.704-5.42-0.3 c-2.608,0.67-5.072,2.139-7.352,3.538c-0.76,0.467-1.512,0.945-2.264,1.423c1.291-0.82-2.749-7.878-3.34-9.015 c-3.016-5.812-8.53-12.937-16.011-11.722c-3.378,0.547-6.921,2.26-8.996,5.044c-3.2,4.289-3.699,9.783-4.262,14.931 c-2.933-3.262-6.062-6.659-10.403-7.948c-3.766-1.115-7.937-0.458-11.226,1.671c-5.253,3.4-6.414,10.475-4.485,16.613 c1.357,4.327,3.905,5.912,8.508,5.704L469.066,61.834z"/><path fill="#C2C2C2" d="M275.29,82.13c5.815,0.239,11.527,0.04,17.645-0.127c1.769-0.049,3.537-0.096,5.306-0.131 c2.794-0.054,5.588-0.078,8.377-0.004c2.701,0.071,5.438,0.313,8.147,0.161c2.721-0.151,6.039-1.032,7.134-2.922 c0.788-1.362,0.777-3.227-0.353-4.466c-0.561-0.615-1.705-1.343-2.734-1.57c-0.969-0.213-2.444-0.284-3.447-0.098 c-1.664,0.309-3.241,0.966-4.7,1.591c-0.486,0.208-0.968,0.422-1.449,0.635c0.826-0.367-1.7-3.423-2.069-3.916 c-1.883-2.519-5.348-5.596-10.115-5.019c-2.153,0.259-4.418,1.03-5.756,2.259c-2.063,1.892-2.415,4.294-2.806,6.546 c-1.845-1.406-3.814-2.871-6.569-3.406c-2.39-0.464-5.048-0.151-7.154,0.799c-3.364,1.517-4.147,4.614-2.958,7.283 c0.837,1.881,2.448,2.557,5.378,2.438L275.29,82.13z"/><path fill="#C2C2C2" d="M418.292,34.188c5.814,0.217,11.526,0.02,17.644-0.149c1.769-0.05,3.537-0.097,5.306-0.133 c2.794-0.056,5.588-0.083,8.377-0.017c2.7,0.063,5.437,0.288,8.146,0.14c2.721-0.148,6.04-0.989,7.138-2.786 c0.791-1.294,0.783-3.064-0.345-4.239c-0.56-0.583-1.703-1.273-2.732-1.487c-0.968-0.201-2.443-0.266-3.446-0.087 c-1.665,0.296-3.243,0.923-4.703,1.519c-0.486,0.199-0.968,0.402-1.45,0.605c0.827-0.35-1.694-3.248-2.063-3.715 c-1.879-2.389-5.339-5.305-10.107-4.749c-2.153,0.25-4.419,0.984-5.759,2.153c-2.066,1.8-2.422,4.082-2.815,6.22 c-1.843-1.333-3.811-2.719-6.564-3.224c-2.389-0.437-5.047-0.135-7.153,0.77c-3.367,1.446-4.155,4.387-2.971,6.919 c0.835,1.784,2.444,2.424,5.375,2.306L418.292,34.188z"/><path fill="#C2C2C2" d="M250.28,50.816c5.819,0.35,11.531,0.146,17.648-0.016c1.769-0.048,3.537-0.093,5.306-0.122 c2.794-0.045,5.589-0.053,8.379,0.064c2.702,0.112,5.441,0.44,8.15,0.27c2.721-0.168,6.032-1.254,7.112-3.636 c0.776-1.715,0.751-4.073-0.39-5.65c-0.566-0.782-1.717-1.713-2.748-2.008c-0.971-0.277-2.447-0.378-3.449-0.152 c-1.662,0.377-3.234,1.195-4.688,1.974c-0.484,0.26-0.964,0.526-1.444,0.791c0.824-0.457-1.729-4.342-2.102-4.969 c-1.904-3.201-5.395-7.12-10.159-6.429c-2.152,0.311-4.411,1.266-5.739,2.809c-2.048,2.376-2.38,5.411-2.752,8.255 c-1.857-1.793-3.839-3.661-6.599-4.361c-2.394-0.606-5.051-0.232-7.149,0.952c-3.353,1.891-4.11,5.8-2.899,9.185 c0.853,2.385,2.469,3.253,5.399,3.127L250.28,50.816z"/><path fill="#C2C2C2" d="M127.435,189.04c6.594,0.487,13.065,0.252,19.994,0.073c2.003-0.053,4.006-0.101,6.011-0.129 c3.165-0.046,6.33-0.04,9.492,0.127c3.063,0.162,6.167,0.604,9.236,0.397c3.081-0.206,6.828-1.605,8.038-4.71 c0.871-2.236,0.829-5.315-0.474-7.382c-0.644-1.023-1.952-2.245-3.123-2.637c-1.101-0.368-2.775-0.508-3.908-0.217 c-1.881,0.484-3.658,1.543-5.301,2.552c-0.548,0.337-1.09,0.682-1.633,1.026c0.932-0.592-1.981-5.681-2.407-6.5 c-2.176-4.191-6.152-9.328-11.545-8.452c-2.436,0.395-4.99,1.63-6.486,3.637c-2.308,3.093-2.667,7.055-3.073,10.766 c-2.115-2.352-4.371-4.802-7.502-5.73c-2.715-0.805-5.722-0.33-8.094,1.204c-3.788,2.452-4.625,7.553-3.234,11.979 c0.979,3.12,2.815,4.263,6.135,4.112L127.435,189.04z"/></g></switch></svg>